<?xml version="1.0" encoding="utf-8"?>
<svg viewBox="0 0 500 500" xmlns="http://www.w3.org/2000/svg" xmlns:xlink="http://www.w3.org/1999/xlink" xmlns:bx="https://boxy-svg.com">
  <defs>
    <linearGradient id="linearGradient11849">
      <stop style="stop-color:#1d6b40;stop-opacity:1;" offset="0" id="stop11845"/>
      <stop style="stop-color:#217748;stop-opacity:1;" offset="1" id="stop11847"/>
    </linearGradient>
    <linearGradient id="linearGradient17477" gradientUnits="userSpaceOnUse" x1="110.82898" y1="729.64789" x2="110.82898" y2="596.07373" gradientTransform="matrix(0,-0.70582253,0.70582253,0,-487.11318,134.25367)" xlink:href="#linearGradient11849"/>
  </defs>
  <g transform="matrix(0.014865, 0, 0, -0.015788, 315.450104, 332.627777)" fill="#000000" stroke="none" style="">
    <path d="M6689 12785 c-192 -31 -338 -79 -704 -229 -291 -120 -328 -139 -375 -192 l-33 -38 7 -88 c6 -81 4 -99 -28 -216 -19 -70 -40 -147 -47 -172 -7 -27 -14 -186 -19 -405 -8 -415 -3 -390 -112 -619 -47 -98 -73 -166 -76 -197 -4 -46 -3 -48 38 -78 23 -17 78 -45 121 -63 l79 -32 -7 -68 c-7 -81 -3 -88 80 -129 32 -17 57 -33 55 -37 -59 -113 -56 -131 31 -153 l56 -14 21 -106 c46 -226 71 -235 414 -156 167 39 220 42 267 19 92 -48 173 -174 173 -272 0 -52 -3 -60 -54 -124 -121 -152 -323 -364 -786 -826 -602 -602 -912 -885 -1037 -946 -50 -25 -60 -26 -146 -21 -64 4 -136 18 -237 46 -204 58 -275 63 -855 60 -275 -1 -559 -2 -631 -1 l-131 2 -44 68 c-50 77 -99 109 -179 119 -51 6 -51 6 -100 -45 l-49 -51 -51 56 c-46 50 -109 134 -155 205 l-17 27 46 28 c61 36 65 58 30 141 -38 91 -269 546 -606 1195 -153 296 -297 586 -320 645 -48 124 -64 152 -88 152 -9 0 -55 -18 -101 -39 -46 -21 -103 -42 -126 -46 -38 -6 -45 -4 -83 31 -23 21 -73 86 -111 144 -140 214 -136 210 -176 210 -75 0 -102 -31 -273 -315 -56 -93 -159 -255 -227 -358 -144 -217 -140 -187 -43 -321 32 -44 84 -126 116 -181 62 -108 114 -187 338 -510 188 -272 182 -258 155 -331 -27 -72 -26 -88 11 -344 17 -113 33 -245 36 -295 8 -134 20 -159 127 -262 162 -156 311 -248 472 -288 125 -32 309 -46 600 -46 261 -1 254 1 309 -83 38 -56 85 -94 148 -121 52 -21 83 -19 138 11 46 25 51 26 102 14 104 -25 689 -228 750 -261 18 -10 17 -14 -13 -67 -18 -31 -91 -151 -163 -267 -262 -424 -307 -542 -356 -929 -37 -297 -52 -350 -154 -554 -31 -61 -67 -142 -81 -178 -13 -36 -81 -293 -150 -572 -328 -1325 -468 -1779 -681 -2204 -284 -567 -746 -1238 -942 -1368 -63 -42 -151 -67 -279 -80 -308 -31 -329 -39 -371 -128 -24 -50 -27 -69 -27 -162 0 -92 3 -111 25 -155 30 -60 64 -81 161 -100 262 -49 1147 -47 1419 5 169 32 210 62 210 158 1 79 16 113 97 228 93 131 167 221 261 318 131 135 214 170 247 107 30 -59 46 -149 65 -366 37 -413 46 -433 192 -423 134 10 262 80 305 168 30 62 51 209 63 450 10 206 6 338 -12 397 -5 18 -29 50 -54 72 -24 21 -44 44 -44 50 0 6 18 34 39 61 45 56 56 94 42 133 -6 15 -44 82 -85 150 -178 295 -222 446 -167 584 36 92 119 249 203 385 326 530 492 818 573 991 67 145 89 205 220 606 l123 378 12 154 c6 85 17 179 23 209 12 52 14 55 42 52 47 -5 97 -37 157 -99 101 -106 109 -162 49 -330 -36 -102 -69 -258 -170 -808 -44 -239 -81 -481 -81 -532 0 -61 14 -75 90 -92 25 -6 108 -45 185 -87 250 -137 452 -224 617 -265 176 -43 452 -37 918 22 351 45 327 46 510 -34 85 -38 162 -75 170 -83 13 -14 12 -18 -15 -41 -16 -14 -53 -44 -81 -68 -98 -84 -87 7 -199 -1670 -11 -161 -28 -561 -27 -613 2 -71 32 -136 71 -157 48 -24 183 -37 311 -30 184 11 327 31 356 50 l27 17 -9 162 c-15 279 -9 705 15 956 21 222 41 358 62 434 23 83 122 155 265 190 128 33 1405 69 1433 41 16 -17 47 -191 100 -560 98 -685 133 -967 137 -1115 7 -214 21 -241 134 -259 86 -14 277 -14 359 0 53 10 73 19 98 44 30 30 33 39 33 90 0 31 -4 98 -10 148 -5 51 -24 227 -40 392 -72 701 -199 1794 -220 1899 -13 62 -41 101 -93 128 -37 19 -56 22 -147 20 -136 -3 -163 3 -155 31 4 12 20 40 36 62 123 166 135 205 150 494 6 108 26 378 45 601 18 223 35 452 36 510 1 101 0 108 -35 187 -52 114 -51 181 3 362 60 201 60 189 0 317 -29 60 -52 121 -52 136 1 34 21 71 72 133 78 93 80 113 16 174 -43 42 -45 61 -10 143 l26 62 -20 51 c-18 42 -23 95 -36 345 -30 575 -30 627 -7 694 12 33 21 67 21 77 0 10 -19 65 -41 121 -46 113 -94 355 -105 523 l-6 90 98 -148 c87 -134 99 -148 123 -145 l26 3 1 160 c0 155 1 164 37 278 54 174 73 308 59 410 -13 99 -27 143 -103 313 -103 234 -262 703 -300 887 -19 92 -20 117 -13 257 18 323 10 387 -82 622 -54 138 -225 482 -284 570 -65 99 -111 134 -256 194 -96 40 -129 60 -179 106 -93 86 -113 136 -126 310 -18 243 -55 384 -129 496 -87 130 -301 329 -475 440 -102 65 -256 138 -360 168 -112 32 -286 41 -416 19z m1358 -1760 c89 -26 136 -104 101 -168 -6 -12 -43 -56 -81 -97 -96 -102 -177 -213 -210 -287 -31 -69 -57 -189 -57 -261 -1 -127 -28 -121 -74 17 -36 110 -44 177 -30 263 6 34 10 37 56 49 45 10 54 17 87 69 62 96 113 226 118 300 6 98 13 130 27 130 7 0 35 -7 63 -15z m-2100 -4210 c11 -8 35 -38 54 -67 85 -136 102 -158 147 -186 52 -32 63 -37 209 -82 114 -36 153 -66 172 -137 18 -62 13 -172 -9 -236 -11 -31 -20 -61 -20 -67 0 -5 9 -19 20 -30 16 -16 34 -20 83 -20 l62 -1 -62 -59 -62 -59 6 -82 6 -83 -34 24 c-19 14 -99 74 -179 134 -80 60 -176 130 -213 154 -85 55 -417 217 -717 351 -124 55 -226 104 -228 109 -6 19 523 287 648 327 90 29 90 29 117 10z"/>
  </g>
  <g id="layer1" transform="matrix(1, 0, 0, 1, 76.017601, 179.277527)">
    <g id="shape306-18" transform="matrix(0.70582253,0,0,0.70582253,0.72666782,-399.23032)" style="fill:#ffffff;fill-opacity:1;stroke:none">
      <title id="title100">Rectangle.306</title>
      <rect x="0" y="560.896" width="133.575" height="168.75" class="st1" id="rect102" style="fill:#ffffff;stroke:none;stroke-width:0.25;fill-opacity:1"/>
    </g>
    <g id="shape23-20" transform="matrix(0.70582253,0,0,0.70582253,-9.5642222,-396.05976)" style="fill:#1f7144;fill-opacity:1;stroke:none">
      <title id="title105">rect307.23</title>
      <path d="M 9.48,551.34 C 4.23,551.34 0,555.55 0,560.79 V 720.2 c 0,5.23 4.23,9.45 9.48,9.45 h 135.33 c 5.25,0 9.48,-4.22 9.48,-9.45 V 560.79 c 0,-5.24 -4.23,-9.45 -9.48,-9.45 z m -1.9,7.83 H 146.63 V 721.73 H 7.58 Z" class="st4" id="path107" style="fill:#1f7144;stroke:none;stroke-width:0.683161;stroke-linecap:round;stroke-linejoin:round;fill-opacity:1"/>
    </g>
    <g id="group43-22" transform="matrix(0.70582253,0,0,0.70582253,23.680018,-412.21817)" style="fill:#1f7144;fill-opacity:1;stroke:none">
      <title id="title110">Sheet.43</title>
      <g id="shape33-23" transform="translate(45.3846,-111.731)" style="fill:#1f7144;fill-opacity:1;stroke:none">
        <title id="title112">Rectangle</title>
        <rect x="0" y="709.42902" width="37.442299" height="20.216801" class="st5" id="rect114" style="fill:#1f7144;stroke:none;stroke-width:0.25;fill-opacity:1"/>
      </g>
      <g id="shape34-25" transform="translate(0,-111.731)" style="fill:#1f7144;fill-opacity:1;stroke:none">
        <title id="title117">Rectangle.34</title>
        <rect x="0" y="709.42902" width="37.442299" height="20.216801" class="st5" id="rect119" style="fill:#1f7144;stroke:none;stroke-width:0.25;fill-opacity:1"/>
      </g>
      <g id="shape35-27" transform="translate(45.3846,-84.1219)" style="fill:#1f7144;fill-opacity:1;stroke:none">
        <title id="title122">Rectangle.35</title>
        <rect x="0" y="709.42902" width="37.442299" height="20.216801" class="st5" id="rect124" style="fill:#1f7144;stroke:none;stroke-width:0.25;fill-opacity:1"/>
      </g>
      <g id="shape36-29" transform="translate(0,-84.2136)" style="fill:#1f7144;fill-opacity:1;stroke:none">
        <title id="title127">Rectangle.36</title>
        <rect x="0" y="709.42902" width="37.442299" height="20.216801" class="st5" id="rect129" style="fill:#1f7144;stroke:none;stroke-width:0.25;fill-opacity:1"/>
      </g>
      <g id="shape37-31" transform="translate(45.3846,-56.1348)" style="fill:#1f7144;fill-opacity:1;stroke:none">
        <title id="title132">Rectangle.37</title>
        <rect x="0" y="709.42902" width="37.442299" height="20.216801" class="st5" id="rect134" style="fill:#1f7144;stroke:none;stroke-width:0.25;fill-opacity:1"/>
      </g>
      <g id="shape38-33" transform="translate(0,-56.1348)" style="fill:#1f7144;fill-opacity:1;stroke:none">
        <title id="title137">Rectangle.38</title>
        <rect x="0" y="709.42902" width="37.442299" height="20.216801" class="st5" id="rect139" style="fill:#1f7144;stroke:none;stroke-width:0.25;fill-opacity:1"/>
      </g>
      <g id="shape39-35" transform="translate(45.3846,-27.8267)" style="fill:#1f7144;fill-opacity:1;stroke:none">
        <title id="title142">Rectangle.39</title>
        <rect x="0" y="709.42902" width="37.442299" height="20.216801" class="st5" id="rect144" style="fill:#1f7144;stroke:none;stroke-width:0.25;fill-opacity:1"/>
      </g>
      <g id="shape40-37" transform="translate(0,-28.0101)" style="fill:#1f7144;fill-opacity:1;stroke:none">
        <title id="title147">Rectangle.40</title>
        <rect x="0" y="709.42902" width="37.442299" height="20.216801" class="st5" id="rect149" style="fill:#1f7144;stroke:none;stroke-width:0.25;fill-opacity:1"/>
      </g>
      <g id="shape41-39" transform="translate(45.3846)" style="fill:#1f7144;fill-opacity:1;stroke:none">
        <title id="title152">Rectangle.41</title>
        <rect x="0" y="709.42902" width="37.442299" height="20.216801" class="st5" id="rect154" style="fill:#1f7144;stroke:none;stroke-width:0.25;fill-opacity:1"/>
      </g>
      <g id="shape42-41" style="fill:#1f7144;fill-opacity:1;stroke:none">
        <title id="title157">Rectangle.42</title>
        <rect x="0" y="709.42902" width="37.442299" height="20.216801" class="st5" id="rect159" style="fill:#1f7144;stroke:none;stroke-width:0.25;fill-opacity:1"/>
      </g>
    </g>
    <path d="M 27.890229,134.25367 V -22.198952 L -66.393545,-6.5579247 V 118.60558 Z" class="st25" id="path439" style="fill:url(#linearGradient17477);fill-opacity:1;stroke:none;stroke-width:0.176456"/>
    <g id="shape46-218" transform="matrix(0.70582253,0,0,0.70582253,-41.794902,-430.39663)" style="stroke:none">
      <title id="title553">Sheet.46</title>
      <path d="m 17.42,652.12 9.25,24.04 c 0.66695,1.41952 0.967121,2.94412 1.120543,3.97 -0.07109,-1.19527 0.180557,-2.12852 0.859457,-3.97 l 10.96,-25.36 16.84,-1 c -6.81905,12.98723 -13.377034,26.10986 -19.67,39.36 l 20.51,40.49 -18.15,-1.08 -11.03,-26.42 c -0.862713,-1.99274 -0.696225,-2.26412 -0.87,-3.24 -0.08029,0.69478 -0.108047,1.26451 -0.57,2.52 L 15.57,727.17 0,726.24 18,689.7 1.8,653.05 Z" class="st24" id="path555" style="fill:#ffffff;stroke:none;stroke-width:0.75"/>
    </g>
  </g>
  <path d="M 189.191 218.036 H 275.58 L 275.58 209.536 L 315.58 226.036 L 275.58 242.536 L 275.58 234.036 H 189.191 V 218.036 Z" transform="matrix(0.99999, 0.004402, -0.004402, 0.99999, 0.996794, -0.83059)" bx:shape="arrow 189.191 209.536 126.389 33 16 40 0 1@caf09b47"/>
</svg>