<?xml version="1.0" encoding="UTF-8" standalone="no"?>
<!-- Generator: Adobe Illustrator 27.1.0, SVG Export Plug-In . SVG Version: 6.00 Build 0)  -->

<svg
   version="1.1"
   id="Layer_2_00000019668412242198057240000000369972908838361516_"
   x="0px"
   y="0px"
   viewBox="0 0 309.00002 308.99999"
   xml:space="preserve"
   sodipodi:docname="Logo_HKH_4_jc.svg"
   width="309"
   height="309"
   inkscape:version="1.1.2 (b8e25be833, 2022-02-05)"
   xmlns:inkscape="http://www.inkscape.org/namespaces/inkscape"
   xmlns:sodipodi="http://sodipodi.sourceforge.net/DTD/sodipodi-0.dtd"
   xmlns="http://www.w3.org/2000/svg"
   xmlns:svg="http://www.w3.org/2000/svg"><defs
   id="defs956">
	
	
</defs><sodipodi:namedview
   id="namedview954"
   pagecolor="#ffffff"
   bordercolor="#666666"
   borderopacity="1.0"
   inkscape:pageshadow="2"
   inkscape:pageopacity="0.0"
   inkscape:pagecheckerboard="0"
   showgrid="false"
   fit-margin-top="0"
   fit-margin-left="0"
   fit-margin-right="0"
   fit-margin-bottom="100"
   inkscape:zoom="1.4540338"
   inkscape:cx="96.971613"
   inkscape:cy="115.88452"
   inkscape:window-width="1920"
   inkscape:window-height="991"
   inkscape:window-x="-9"
   inkscape:window-y="-9"
   inkscape:window-maximized="1"
   inkscape:current-layer="g1068" />
<style
   type="text/css"
   id="style891">
	.st0{opacity:0.5;fill:#C13333;enable-background:new    ;}
	.st1{opacity:0.5;enable-background:new    ;}
	.st2{font-family:'Magistral-Bold';}
	.st3{font-size:32.7386px;}
</style>

<g
   id="g1070"
   clip-path="none"
   transform="translate(-0.68774194,86.212903)"><g
     inkscape:label="Clip"
     id="g1068"><g
       id="g919"
       transform="translate(-5.3,-12.9)">
		<path
   class="st0"
   d="m 19.7,86 h 57.9 l 1.5,-5.7 H 19.8 c 0.3,-4.5 1,-8.8 2,-13 H 7.1 C 5.9,73 5.3,78.9 5.3,85 c 0,0.3 0,0.6 0,1 z"
   id="path893" />
		<path
   class="st0"
   d="m 58.9,50.7 h 27.8 l 1.4,-5.5 H 56.9 L 46.5,54.2 26.1,54 C 32.1,41 42,30.6 54.1,23.2 L 43.9,13.1 C 27.5,24 15.3,41.2 9.4,60.4 h 39 z"
   id="path895" />
		<polygon
   class="st1"
   points="217.6,72.1 224.8,44.6 203.2,44.6 183.1,121.5 204.7,121.5 213.2,89.2 219.6,89.2 211.2,121.5 232.8,121.5 252.9,44.6 231.3,44.6 224.1,72.1 "
   id="polygon897" />
		<path
   class="st1"
   d="M 186.4,121.7"
   id="path899" />
		<path
   class="st1"
   d="M 189.8,121.5"
   id="path901" />
		<polyline
   class="st1"
   points="126.7,121.5 148.3,121.5 156.9,88.5 157.1,121.5 179.4,121.5 176.9,79.3 198.3,44.6 198.3,44.6     178.1,44.6 160.6,74.5 168.4,44.6 146.8,44.6 126.7,121.5   "
   id="polyline903" />
		<path
   class="st1"
   d="M 190.4,121.6"
   id="path905" />
		<path
   class="st1"
   d="M 185.7,121.8"
   id="path907" />
		<path
   class="st0"
   d="m 70.6,116.1 h -3.2 l -8.5,-7.8 -23.1,22.2 c -2.1,-2.6 -4.1,-5.4 -5.9,-8.4 L 52.2,99.8 h 21.7 l 1.6,-6.2 H 49.3 l -22.5,22.8 c -3.4,-7 -5.7,-14.7 -6.7,-22.8 H 5.7 c 2.7,26.7 17.5,49.9 38.9,63.8 L 55,147.1 c -5.6,-3.3 -10.7,-7.4 -15.1,-12 l 19.4,-18.8 6.1,5.3 h 4"
   id="path909" />
		<path
   class="st1"
   d="m 279.5,60.2 v 0 h 30 C 303.6,41 291.4,23.8 275,12.9 l -10.2,10.2 c 12.1,7.5 22,17.8 28,30.8 l -11.4,0.2 -10.4,-9 h -14.3 l -1.4,5.5 H 269 Z"
   id="path911" />
		<path
   class="st1"
   d="m 292.1,116.3 v 0 L 269.6,93.5 H 245 l -1.6,6.2 h 23.3 L 289,122 c -1.8,2.9 -3.7,5.7 -5.9,8.4 l -24.1,-24 h -3 l -10.5,9.7 h -6.4 l -1.4,5.5 h 9.8 l 10.4,-9 -1.3,0.1 22.4,22.4 c -4.5,4.6 -9.6,8.7 -15.1,12 l 10.3,10.3 c 21.4,-13.9 36.3,-37.1 38.9,-63.8 h -14.4 c -0.9,8 -3.2,15.7 -6.6,22.7 z"
   id="path913" />
		<path
   class="st1"
   d="m 311.8,67.1 v 0 h -14.7 c 1.1,4.2 1.7,8.6 2,13 h -50.6 l -1.5,5.7 h 66.5 c 0,-0.3 0,-0.6 0,-1 0.1,-6.1 -0.5,-12 -1.7,-17.7 z"
   id="path915" />
		<polygon
   class="st1"
   points="106.6,72.1 113.8,44.6 92.2,44.6 72.1,121.5 93.7,121.5 102.1,89.2 108.6,89.2 100.1,121.5 121.7,121.5 141.9,44.6 120.3,44.6 113.1,72.1 "
   id="polygon917" />
	</g><g
       id="g947"
       transform="translate(-5.3,-12.9)">
		<path
   d="m 19.7,86 h 57.9 l 1.5,-5.7 H 19.8 c 0.3,-4.5 1,-8.8 2,-13 H 7.1 C 5.9,73 5.3,78.9 5.3,85 c 0,0.3 0,0.6 0,1 z"
   id="path921" />
		<path
   d="m 58.9,50.7 h 27.8 l 1.4,-5.5 H 56.9 L 46.5,54.2 26.1,54 C 32.1,41 42,30.6 54.1,23.2 L 43.9,13.1 C 27.5,24 15.3,41.2 9.4,60.4 h 39 z"
   id="path923" />
		<polygon
   points="217.6,72.1 224.8,44.6 203.2,44.6 183.1,121.5 204.7,121.5 213.2,89.2 219.6,89.2 211.2,121.5 232.8,121.5 252.9,44.6 231.3,44.6 224.1,72.1 "
   id="polygon925" />
		<path
   d="M 186.4,121.7"
   id="path927" />
		<path
   d="M 189.8,121.5"
   id="path929" />
		<polyline
   points="126.7,121.5 148.3,121.5 156.9,88.5 157.1,121.5 179.4,121.5 176.9,79.3 198.3,44.6 198.3,44.6 178.1,44.6     160.6,74.5 168.4,44.6 146.8,44.6 126.7,121.5   "
   id="polyline931" />
		<path
   d="M 190.4,121.6"
   id="path933" />
		<path
   d="M 185.7,121.8"
   id="path935" />
		<path
   d="m 70.6,116.1 h -3.2 l -8.5,-7.8 -23.1,22.2 c -2.1,-2.6 -4.1,-5.4 -5.9,-8.4 L 52.2,99.8 h 21.7 l 1.6,-6.2 H 49.3 l -22.5,22.8 c -3.4,-7 -5.7,-14.7 -6.7,-22.8 H 5.7 c 2.7,26.7 17.5,49.9 38.9,63.8 L 55,147.1 c -5.6,-3.3 -10.7,-7.4 -15.1,-12 l 19.4,-18.8 6.1,5.3 h 4"
   id="path937" />
		<path
   d="m 279.5,60.2 v 0 h 30 C 303.6,41 291.4,23.8 275,12.9 l -10.2,10.2 c 12.1,7.5 22,17.8 28,30.8 l -11.4,0.2 -10.4,-9 h -14.3 l -1.4,5.5 H 269 Z"
   id="path939" />
		<path
   d="m 292.1,116.3 v 0 L 269.6,93.5 H 245 l -1.6,6.2 h 23.3 L 289,122 c -1.8,2.9 -3.7,5.7 -5.9,8.4 l -24.1,-24 h -3 l -10.5,9.7 h -6.4 l -1.4,5.5 h 9.8 l 10.4,-9 -1.3,0.1 22.4,22.4 c -4.5,4.6 -9.6,8.7 -15.1,12 l 10.3,10.3 c 21.4,-13.9 36.3,-37.1 38.9,-63.8 h -14.4 c -0.9,8 -3.2,15.7 -6.6,22.7 z"
   id="path941" />
		<path
   d="m 311.8,67.1 v 0 h -14.7 c 1.1,4.2 1.7,8.6 2,13 h -50.6 l -1.5,5.7 h 66.5 c 0,-0.3 0,-0.6 0,-1 0.1,-6.1 -0.5,-12 -1.7,-17.7 z"
   id="path943" />
		<polygon
   points="106.6,72.1 113.8,44.6 92.2,44.6 72.1,121.5 93.7,121.5 102.1,89.2 108.6,89.2 100.1,121.5 121.7,121.5 141.9,44.6 120.3,44.6 113.1,72.1 "
   id="polygon945" />
	</g><text
       class="st2 st3"
       id="text951"
       x="93.264"
       y="147.9496">GROUP</text></g></g>
</svg>
