<?xml version="1.0" encoding="utf-8"?>
<!-- Generator: Adobe Illustrator 27.1.0, SVG Export Plug-In . SVG Version: 6.00 Build 0)  -->
<svg version="1.1" id="Layer_2_00000019668412242198057240000000369972908838361516_"
	 xmlns="http://www.w3.org/2000/svg" xmlns:xlink="http://www.w3.org/1999/xlink" x="0px" y="0px" viewBox="0 0 319.8 177"
	 style="enable-background:new 0 0 319.8 177;" xml:space="preserve">
<style type="text/css">
	.st0{opacity:0.5;fill:#C13333;enable-background:new    ;}
	.st1{opacity:0.5;enable-background:new    ;}
	.st2{font-family:'Magistral-Bold';}
	.st3{font-size:32.7386px;}
</style>
<g>
	<g>
		<path class="st0" d="M19.7,86h57.9l1.5-5.7H19.8c0.3-4.5,1-8.8,2-13H7.1C5.9,73,5.3,78.9,5.3,85c0,0.3,0,0.6,0,1L19.7,86L19.7,86z
			"/>
		<path class="st0" d="M58.9,50.7h27.8l1.4-5.5H56.9l-10.4,9l-20.4-0.2c6-13,15.9-23.4,28-30.8L43.9,13.1
			C27.5,24,15.3,41.2,9.4,60.4h39L58.9,50.7z"/>
		<polygon class="st1" points="231.3,44.6 224.1,72.1 217.6,72.1 224.8,44.6 203.2,44.6 183.1,121.5 204.7,121.5 213.2,89.2 
			219.6,89.2 211.2,121.5 232.8,121.5 252.9,44.6 		"/>
		<path class="st1" d="M186.4,121.7"/>
		<path class="st1" d="M189.8,121.5"/>
		<polyline class="st1" points="126.7,121.5 148.3,121.5 156.9,88.5 157.1,121.5 179.4,121.5 176.9,79.3 198.3,44.6 198.3,44.6 
			178.1,44.6 160.6,74.5 168.4,44.6 146.8,44.6 126.7,121.5 		"/>
		<path class="st1" d="M190.4,121.6"/>
		<path class="st1" d="M185.7,121.8"/>
		<path class="st0" d="M70.6,116.1h-3.2l-8.5-7.8l-23.1,22.2c-2.1-2.6-4.1-5.4-5.9-8.4l22.3-22.3h21.7l1.6-6.2H49.3l-22.5,22.8
			c-3.4-7-5.7-14.7-6.7-22.8H5.7c2.7,26.7,17.5,49.9,38.9,63.8L55,147.1c-5.6-3.3-10.7-7.4-15.1-12l19.4-18.8l6.1,5.3h4"/>
		<path class="st1" d="M279.5,60.2L279.5,60.2l30,0c-5.9-19.2-18.1-36.4-34.5-47.3l-10.2,10.2c12.1,7.5,22,17.8,28,30.8l-11.4,0.2
			l-10.4-9h-14.3l-1.4,5.5H269L279.5,60.2z"/>
		<path class="st1" d="M292.1,116.3L292.1,116.3l-22.5-22.8H245l-1.6,6.2h23.3L289,122c-1.8,2.9-3.7,5.7-5.9,8.4l-24.1-24h-3
			l-10.5,9.7h-6.4l-1.4,5.5h9.8l10.4-9l-1.3,0.1l22.4,22.4c-4.5,4.6-9.6,8.7-15.1,12l10.3,10.3c21.4-13.9,36.3-37.1,38.9-63.8h-14.4
			C297.8,101.6,295.5,109.3,292.1,116.3z"/>
		<path class="st1" d="M311.8,67.1L311.8,67.1l-14.7,0c1.1,4.2,1.7,8.6,2,13h-50.6l-1.5,5.7h66.5c0-0.3,0-0.6,0-1
			C313.6,78.7,313,72.8,311.8,67.1z"/>
		<polygon class="st1" points="120.3,44.6 113.1,72.1 106.6,72.1 113.8,44.6 92.2,44.6 72.1,121.5 93.7,121.5 102.1,89.2 
			108.6,89.2 100.1,121.5 121.7,121.5 141.9,44.6 		"/>
	</g>
	<g>
		<path d="M19.7,86h57.9l1.5-5.7H19.8c0.3-4.5,1-8.8,2-13H7.1C5.9,73,5.3,78.9,5.3,85c0,0.3,0,0.6,0,1L19.7,86L19.7,86z"/>
		<path d="M58.9,50.7h27.8l1.4-5.5H56.9l-10.4,9l-20.4-0.2c6-13,15.9-23.4,28-30.8L43.9,13.1C27.5,24,15.3,41.2,9.4,60.4h39
			L58.9,50.7z"/>
		<polygon points="231.3,44.6 224.1,72.1 217.6,72.1 224.8,44.6 203.2,44.6 183.1,121.5 204.7,121.5 213.2,89.2 219.6,89.2 
			211.2,121.5 232.8,121.5 252.9,44.6 		"/>
		<path d="M186.4,121.7"/>
		<path d="M189.8,121.5"/>
		<polyline points="126.7,121.5 148.3,121.5 156.9,88.5 157.1,121.5 179.4,121.5 176.9,79.3 198.3,44.6 198.3,44.6 178.1,44.6 
			160.6,74.5 168.4,44.6 146.8,44.6 126.7,121.5 		"/>
		<path d="M190.4,121.6"/>
		<path d="M185.7,121.8"/>
		<path d="M70.6,116.1h-3.2l-8.5-7.8l-23.1,22.2c-2.1-2.6-4.1-5.4-5.9-8.4l22.3-22.3h21.7l1.6-6.2H49.3l-22.5,22.8
			c-3.4-7-5.7-14.7-6.7-22.8H5.7c2.7,26.7,17.5,49.9,38.9,63.8L55,147.1c-5.6-3.3-10.7-7.4-15.1-12l19.4-18.8l6.1,5.3h4"/>
		<path d="M279.5,60.2L279.5,60.2l30,0c-5.9-19.2-18.1-36.4-34.5-47.3l-10.2,10.2c12.1,7.5,22,17.8,28,30.8l-11.4,0.2l-10.4-9h-14.3
			l-1.4,5.5H269L279.5,60.2z"/>
		<path d="M292.1,116.3L292.1,116.3l-22.5-22.8H245l-1.6,6.2h23.3L289,122c-1.8,2.9-3.7,5.7-5.9,8.4l-24.1-24h-3l-10.5,9.7h-6.4
			l-1.4,5.5h9.8l10.4-9l-1.3,0.1l22.4,22.4c-4.5,4.6-9.6,8.7-15.1,12l10.3,10.3c21.4-13.9,36.3-37.1,38.9-63.8h-14.4
			C297.8,101.6,295.5,109.3,292.1,116.3z"/>
		<path d="M311.8,67.1L311.8,67.1l-14.7,0c1.1,4.2,1.7,8.6,2,13h-50.6l-1.5,5.7h66.5c0-0.3,0-0.6,0-1
			C313.6,78.7,313,72.8,311.8,67.1z"/>
		<polygon points="120.3,44.6 113.1,72.1 106.6,72.1 113.8,44.6 92.2,44.6 72.1,121.5 93.7,121.5 102.1,89.2 108.6,89.2 
			100.1,121.5 121.7,121.5 141.9,44.6 		"/>
	</g>
</g>
<text transform="matrix(1 0 0 1 96.564 162.8496)" class="st2 st3">GROUP</text>
</svg>
