<?xml version="1.0" encoding="utf-8"?>
<!-- Generator: Adobe Illustrator 27.1.0, SVG Export Plug-In . SVG Version: 6.00 Build 0)  -->
<svg version="1.1" id="Layer_2_00000019668412242198057240000000369972908838361516_"
	 xmlns="http://www.w3.org/2000/svg" xmlns:xlink="http://www.w3.org/1999/xlink" x="0px" y="0px" viewBox="0 0 452.6 169"
	 style="enable-background:new 0 0 452.6 169;" xml:space="preserve">
<style type="text/css">
	.st0{opacity:0.5;fill:#C13333;enable-background:new    ;}
	.st1{opacity:0.5;enable-background:new    ;}
</style>
<g>
	<g>
		<path class="st0" d="M19.7,86h118.9l1.5-5.7H19.8c0.3-4.5,1-8.8,2-13H7.1C5.9,73,5.3,78.9,5.3,85c0,0.3,0,0.6,0,1L19.7,86L19.7,86
			z"/>
		<path class="st0" d="M121.9,50.7h25.8l1.4-5.5h-29.3l-10.4,9l-83.4-0.2c6-13,15.9-23.4,28-30.8L43.9,13.1
			C27.5,24,15.3,41.2,9.4,60.4h102L121.9,50.7z"/>
		<polygon class="st1" points="294.4,44.6 287.2,72.1 280.7,72.1 287.9,44.6 266.3,44.6 246.2,121.5 267.8,121.5 276.3,89.2 
			282.7,89.2 274.3,121.5 295.9,121.5 316,44.6 		"/>
		<path class="st1" d="M186.4,121.7"/>
		<path class="st1" d="M189.8,121.5"/>
		<polyline class="st1" points="189.8,121.5 211.4,121.5 220,88.5 220.2,121.5 242.5,121.5 240,79.3 261.5,44.6 261.4,44.6 
			241.2,44.6 223.7,74.5 231.5,44.6 209.9,44.6 189.8,121.5 		"/>
		<path class="st1" d="M190.4,121.6"/>
		<path class="st1" d="M185.7,121.8"/>
		<path class="st0" d="M130.6,116.1h-8.2l-10.5-9.7h-52l-24.1,24c-2.1-2.6-4.1-5.4-5.9-8.4l22.3-22.3h82.7l1.6-6.2H49.3l-22.5,22.8
			c-3.4-7-5.7-14.7-6.7-22.8H5.7c2.7,26.7,17.5,49.9,38.9,63.8L55,147.1c-5.6-3.3-10.7-7.4-15.1-12l22.4-22.4l47.7-0.1l10.4,9l9,0.2
			"/>
		<path class="st1" d="M342.5,60.2L342.5,60.2l102,0c-5.9-19.2-18.1-36.4-34.5-47.3l-10.2,10.2c12.1,7.5,22,17.8,28,30.8l-83.4,0.2
			l-10.4-9h-14.3l-1.4,5.5H332L342.5,60.2z"/>
		<path class="st1" d="M427.1,116.3L427.1,116.3l-22.5-22.8H307l-1.6,6.2h96.3L424,122c-1.8,2.9-3.7,5.7-5.9,8.4l-24.1-24h-52
			l-10.5,9.7h-30.4l-1.4,5.5h33.8l10.4-9l47.7,0.1l22.4,22.4c-4.5,4.6-9.6,8.7-15.1,12l10.3,10.3c21.4-13.9,36.3-37.1,38.9-63.8
			h-14.4C432.8,101.6,430.5,109.3,427.1,116.3z"/>
		<path class="st1" d="M446.8,67.1L446.8,67.1l-14.7,0c1.1,4.2,1.7,8.6,2,13H310.5l-1.5,5.7h139.5c0-0.3,0-0.6,0-1
			C448.6,78.7,448,72.8,446.8,67.1z"/>
		<polygon class="st1" points="181.9,45.4 174.7,72.9 168.3,72.9 175.5,45.4 153.8,45.4 133.7,122.3 155.3,122.3 163.8,90 170.2,90 
			161.8,122.3 183.4,122.3 203.5,45.4 		"/>
	</g>
	<g>
		<path d="M19.7,86h118.9l1.5-5.7H19.8c0.3-4.5,1-8.8,2-13H7.1C5.9,73,5.3,78.9,5.3,85c0,0.3,0,0.6,0,1L19.7,86L19.7,86z"/>
		<path d="M121.9,50.7h25.8l1.4-5.5h-29.3l-10.4,9l-83.4-0.2c6-13,15.9-23.4,28-30.8L43.9,13.1C27.5,24,15.3,41.2,9.4,60.4h102
			L121.9,50.7z"/>
		<polygon points="294.4,44.6 287.2,72.1 280.7,72.1 287.9,44.6 266.3,44.6 246.2,121.5 267.8,121.5 276.3,89.2 282.7,89.2 
			274.3,121.5 295.9,121.5 316,44.6 		"/>
		<path d="M186.4,121.7"/>
		<path d="M189.8,121.5"/>
		<polyline points="189.8,121.5 211.4,121.5 220,88.5 220.2,121.5 242.5,121.5 240,79.3 261.5,44.6 261.4,44.6 241.2,44.6 
			223.7,74.5 231.5,44.6 209.9,44.6 189.8,121.5 		"/>
		<path d="M190.4,121.6"/>
		<path d="M185.7,121.8"/>
		<path d="M130.6,116.1h-8.2l-10.5-9.7h-52l-24.1,24c-2.1-2.6-4.1-5.4-5.9-8.4l22.3-22.3h82.7l1.6-6.2H49.3l-22.5,22.8
			c-3.4-7-5.7-14.7-6.7-22.8H5.7c2.7,26.7,17.5,49.9,38.9,63.8L55,147.1c-5.6-3.3-10.7-7.4-15.1-12l22.4-22.4l47.7-0.1l10.4,9l9,0.2
			"/>
		<path d="M342.5,60.2L342.5,60.2l102,0c-5.9-19.2-18.1-36.4-34.5-47.3l-10.2,10.2c12.1,7.5,22,17.8,28,30.8l-83.4,0.2l-10.4-9
			h-14.3l-1.4,5.5H332L342.5,60.2z"/>
		<path d="M427.1,116.3L427.1,116.3l-22.5-22.8H307l-1.6,6.2h96.3L424,122c-1.8,2.9-3.7,5.7-5.9,8.4l-24.1-24h-52l-10.5,9.7h-30.4
			l-1.4,5.5h33.8l10.4-9l47.7,0.1l22.4,22.4c-4.5,4.6-9.6,8.7-15.1,12l10.3,10.3c21.4-13.9,36.3-37.1,38.9-63.8h-14.4
			C432.8,101.6,430.5,109.3,427.1,116.3z"/>
		<path d="M446.8,67.1L446.8,67.1l-14.7,0c1.1,4.2,1.7,8.6,2,13H310.5l-1.5,5.7h139.5c0-0.3,0-0.6,0-1
			C448.6,78.7,448,72.8,446.8,67.1z"/>
		<polygon points="181.9,45.4 174.7,72.9 168.3,72.9 175.5,45.4 153.8,45.4 133.7,122.3 155.3,122.3 163.8,90 170.2,90 161.8,122.3 
			183.4,122.3 203.5,45.4 		"/>
	</g>
</g>
</svg>
