<?xml version="1.0" standalone="no"?>
<!DOCTYPE svg PUBLIC "-//W3C//DTD SVG 20010904//EN"
 "http://www.w3.org/TR/2001/REC-SVG-20010904/DTD/svg10.dtd">
<svg version="1.0" xmlns="http://www.w3.org/2000/svg"
 width="200.000000pt" height="200.000000pt" viewBox="0 0 200.000000 200.000000"
 preserveAspectRatio="xMidYMid meet">
<metadata>
Created by potrace 1.10, written by Peter Selinger 2001-2011
</metadata>
<g transform="translate(0.000000,200.000000) scale(0.100000,-0.100000)"
fill="#000000" stroke="none">
<path d="M950 1944 c-14 -2 -52 -9 -85 -15 -410 -71 -760 -398 -840 -785 -20
-95 -19 -274 1 -372 109 -532 730 -855 1282 -668 367 125 650 486 679 865 4
53 3 72 -5 67 -6 -3 -14 -27 -18 -51 -4 -28 -11 -45 -20 -45 -11 0 -14 22 -13
103 0 211 -60 366 -203 522 -104 112 -232 197 -359 239 -109 35 -157 41 -334
41 -159 -1 -190 -3 -265 -24 -292 -82 -517 -261 -617 -491 -52 -120 -66 -200
-61 -353 5 -147 20 -203 89 -340 96 -193 280 -361 479 -439 114 -45 166 -53
325 -53 123 1 165 5 233 23 229 62 434 206 564 397 80 117 138 250 138 318 0
15 4 27 9 27 8 0 7 -17 -10 -105 -11 -58 -40 -135 -51 -135 -5 0 -8 -6 -8 -14
0 -8 -17 -43 -37 -78 -100 -170 -223 -291 -383 -376 -192 -101 -401 -139 -590
-108 -113 18 -278 72 -337 109 -24 15 -47 27 -51 27 -14 0 -102 68 -160 124
-80 76 -139 157 -182 249 -37 81 -84 242 -75 257 3 5 0 10 -7 12 -16 6 -17
159 -2 179 6 8 14 37 18 64 9 66 22 102 89 245 86 185 277 365 485 457 95 41
116 48 217 72 69 16 223 33 252 27 16 -3 57 -8 93 -11 187 -18 382 -103 513
-224 123 -115 186 -225 233 -410 44 -171 57 -193 50 -83 -4 53 -16 114 -36
173 -117 351 -438 573 -845 584 -71 2 -141 2 -155 -1z m335 -153 c255 -66 470
-247 562 -473 183 -450 -124 -980 -647 -1119 -67 -18 -112 -23 -215 -23 -194
0 -313 36 -471 140 -140 92 -265 241 -330 394 -187 434 50 899 539 1060 166
54 399 63 562 21z"/>
<path d="M898 1689 c-379 -55 -687 -364 -688 -690 0 -178 72 -332 223 -475
253 -241 632 -303 932 -154 253 125 416 377 416 644 2 432 -408 745 -883 675z
m322 -49 c264 -64 458 -249 515 -494 54 -229 -48 -495 -252 -659 -83 -66 -138
-97 -223 -125 -238 -79 -521 -29 -735 129 -89 66 -182 173 -217 249 -57 124
-70 200 -57 322 8 71 18 99 77 228 9 19 59 78 112 130 80 80 110 102 190 142
93 46 240 93 310 100 72 6 208 -4 280 -22z"/>
<path d="M905 1630 c-11 -4 -54 -20 -95 -36 -220 -81 -405 -283 -454 -498 -54
-229 31 -455 227 -602 127 -95 226 -127 397 -126 165 0 217 12 345 76 214 107
359 362 349 612 -3 74 -25 153 -71 251 -29 63 -164 207 -218 233 -16 8 -37 19
-45 26 -8 6 -57 26 -108 43 -83 27 -107 31 -200 30 -59 0 -116 -4 -127 -9z
m320 -55 c105 -35 162 -71 246 -154 150 -149 202 -339 150 -543 -61 -237 -220
-397 -460 -459 -90 -24 -240 -28 -321 -10 -221 52 -402 226 -456 441 -44 176
29 394 186 550 182 183 432 249 655 175z"/>
<path d="M923 1440 c-175 -32 -326 -142 -397 -290 -27 -58 -31 -75 -31 -155 0
-80 3 -97 32 -158 77 -162 253 -279 442 -294 158 -11 296 41 400 152 101 108
137 205 129 344 -13 221 -197 388 -445 405 -43 2 -101 1 -130 -4z m237 -46
c68 -19 130 -55 186 -106 247 -228 94 -644 -260 -709 -124 -23 -293 23 -400
110 -61 49 -125 138 -142 198 -22 77 -15 193 15 256 66 134 228 245 396 270
45 7 143 -2 205 -19z"/>
<path d="M935 1321 c-95 -27 -136 -51 -201 -116 -171 -170 -129 -408 91 -516
65 -32 76 -34 170 -34 93 0 105 2 165 32 85 41 155 111 194 193 26 55 31 76
31 140 -1 162 -97 271 -273 309 -70 15 -105 13 -177 -8z m217 -31 c54 -16 129
-69 160 -115 102 -151 28 -363 -162 -462 -50 -25 -65 -28 -155 -28 -87 0 -107
3 -155 26 -160 77 -223 240 -149 387 79 159 283 244 461 192z"/>
<path d="M990 1161 c-103 -32 -165 -100 -165 -182 0 -88 63 -139 170 -139 75
0 128 24 176 77 61 68 64 146 7 202 -46 45 -122 62 -188 42z m155 -57 c44 -33
54 -77 30 -129 -58 -120 -270 -145 -315 -36 -27 65 30 153 121 188 50 19 123
9 164 -23z"/>
<path d="M993 1095 c-34 -15 -73 -67 -73 -98 0 -29 30 -74 58 -87 55 -25 132
31 132 97 0 45 -14 69 -50 88 -34 18 -27 18 -67 0z m73 -41 c31 -30 27 -67
-12 -101 -47 -42 -104 -19 -104 43 0 24 8 39 31 58 38 33 53 33 85 0z"/>
</g>
</svg>
