<?xml version="1.0" encoding="utf-8"?>
<!-- Svg Vector Icons : http://www.onlinewebfonts.com/icon -->
<!DOCTYPE svg PUBLIC "-//W3C//DTD SVG 1.1//EN" "http://www.w3.org/Graphics/SVG/1.1/DTD/svg11.dtd">
<svg version="1.1" xmlns="http://www.w3.org/2000/svg" xmlns:xlink="http://www.w3.org/1999/xlink" x="0px" y="0px" viewBox="0 0 256 256" enable-background="new 0 0 256 256" xml:space="preserve">
<metadata> Svg Vector Icons : http://www.onlinewebfonts.com/icon </metadata>
<g><g><path fill="#000000" d="M128,10C62.8,10,10,62.8,10,128c0,65.2,52.8,118,118,118c65.2,0,118-52.8,118-118C246,62.8,193.2,10,128,10z M58.6,59.8h66.5v66.5H94.8c0.1-2.7,0.7-5.6,1.5-8.5h20.4V68.3H67.1v49.5h12.4c-1.9,2.9-4.6,5.7-5.7,8.5H58.6V59.8L58.6,59.8z M111.6,190.3c-0.4,0.4-0.9,0.5-1.5,0.2c-0.5-0.2-0.8-0.7-0.8-1.2l-0.5-15.1c-0.9-0.1-1.8-0.3-2.8-0.5c-1.7-0.3-3.4-0.7-5.1-1.1c-4.7-1.1-9.2-2.7-13.3-4.7c-2.9-1.4-5.6-3.1-7.9-5.1c-3.3-2.9-5.8-6.3-6.8-10.3c-3.2-12.7,0.3-29.3,25.9-47.4c0.2-0.2,0.5-0.2,0.7-0.2c0.4,0,0.8,0.1,1.1,0.5c0.5,0.5,0.5,1.3,0,1.8c-9.1,9.8-12.8,24.6-9.6,32.9c1.1,2.9,4.1,5.1,8.7,6.5c1.5,0.5,3.2,0.9,5.1,1.2c0.9,0.2,1.9,0.3,2.9,0.4l-0.5-14c0-0.5,0.3-1,0.7-1.3c0.5-0.2,1-0.2,1.5,0.2l33.8,26.4c0.3,0.2,0.5,0.6,0.5,1c0,0.4-0.2,0.8-0.5,1.1L111.6,190.3L111.6,190.3z M194.5,196.2H128v-15.3l8.5-7v13.9H186v-49.5h-49.5v10.5l-8.5-7.2v-11.8h66.5V196.2L194.5,196.2z"/></g></g>
</svg>