<svg width="88" height="80" viewBox="0 0 88 80" fill="none" xmlns="http://www.w3.org/2000/svg">
  <path
      d="M65.9134 68.8369C65.9128 71.0441 66.5601 73.2019 67.7733 75.0374C68.9865 76.8728 70.7112 78.3035 72.7292 79.1484C74.7472 79.9934 76.9679 80.2146 79.1104 79.7842C81.2529 79.3537 83.2209 78.2909 84.7655 76.7302C86.3101 75.1695 87.3619 73.181 87.788 71.0162C88.214 68.8514 87.995 66.6075 87.1588 64.5685C86.3226 62.5294 84.9066 60.7867 83.0901 59.5609C81.2736 58.335 79.138 57.681 76.9536 57.6816C74.0258 57.6825 71.2182 58.858 69.1479 60.9499C67.0777 63.0417 65.9142 65.8786 65.9134 68.8369Z"
      fill="#7F2EFF"/>
  <path
      d="M38.4749 1.49707C37.2187 2.22978 36.1177 3.20542 35.2349 4.36825C34.352 5.53107 33.7045 6.85829 33.3295 8.27405C32.9545 9.68982 32.8593 11.1664 33.0493 12.6193C33.2392 14.0723 33.7107 15.4732 34.4367 16.742L50.9137 45.5816C52.3785 48.1443 54.7909 50.0141 57.6201 50.7795C60.4493 51.545 63.4635 51.1436 65.9998 49.6635C68.536 48.1834 70.3865 45.7458 71.1441 42.8872C71.9017 40.0285 71.5044 36.9828 70.0395 34.4201L53.5595 5.58048C52.8349 4.31103 51.8698 3.19832 50.7194 2.30597C49.5689 1.41362 48.2557 0.759123 46.8548 0.379891C45.4538 0.000658993 43.9927 -0.0958694 42.5548 0.0958238C41.117 0.287517 39.7306 0.763673 38.4749 1.49707Z"
      fill="#7F2EFF"/>
  <path
      d="M17.9579 34.416L1.47783 63.2587C0.752918 64.5287 0.282659 65.9304 0.0938994 67.384C-0.0948601 68.8376 0.00157703 70.3145 0.377705 71.7304C0.753832 73.1463 1.40228 74.4735 2.28604 75.6362C3.16979 76.7989 4.27153 77.7743 5.52837 78.5068C6.7852 79.2392 8.17251 79.7144 9.61109 79.9051C11.0497 80.0958 12.5113 79.9984 13.9126 79.6184C15.3139 79.2383 16.6274 78.5831 17.7781 77.6901C18.9288 76.7972 19.8942 75.6839 20.6191 74.414L25.105 66.5654C25.5632 65.764 26.2672 65.1351 27.1106 64.7738C27.9539 64.4126 28.8908 64.3386 29.7794 64.5631C30.6681 64.7876 31.4602 65.2983 32.0361 66.0181C32.612 66.7378 32.9403 67.6275 32.9714 68.5525C32.9714 68.6492 32.9714 68.7428 32.9714 68.8364C32.9715 71.2921 33.7735 73.6793 35.2529 75.6277C36.7322 77.5761 38.8065 78.977 41.1539 79.6132C43.5014 80.2494 45.991 80.0853 48.2368 79.1464C50.4826 78.2075 52.3591 76.5462 53.5755 74.4201C54.7918 72.294 55.2801 69.8218 54.9645 67.3868C54.6489 64.9518 53.5471 62.69 51.83 60.9521C50.1128 59.2142 47.8762 58.0971 45.4669 57.7742C43.0575 57.4513 40.6101 57.9405 38.5039 59.166C38.4959 59.1631 38.4871 59.1631 38.4792 59.166C38.4393 59.1869 38.4011 59.2109 38.3649 59.2377C37.5596 59.7004 36.626 59.8824 35.7081 59.7558C34.7902 59.6292 33.9391 59.2009 33.286 58.5371C32.6328 57.8733 32.214 57.0107 32.0941 56.0826C31.9742 55.1544 32.1599 54.2121 32.6225 53.4012L37.0991 45.5619C37.851 44.2921 38.3454 42.8838 38.5535 41.4191C38.7616 39.9544 38.6794 38.4625 38.3115 37.0303C37.9437 35.598 37.2975 34.254 36.4107 33.0764C35.524 31.8988 34.4142 30.9112 33.1462 30.171C31.8781 29.4309 30.477 28.953 29.0244 28.7651C27.5717 28.5772 26.0967 28.6832 24.685 29.0768C23.2733 29.4703 21.9532 30.1437 20.8014 31.0577C19.6497 31.9716 18.6894 33.1079 17.9764 34.4004"
      fill="#7F2EFF"/>
</svg>
