<svg width="20" height="18" viewBox="0 0 20 18" fill="none" xmlns="http://www.w3.org/2000/svg">
  <path
      d="M14.9803 15.4882C14.9802 15.9848 15.1273 16.4703 15.403 16.8833C15.6788 17.2963 16.0707 17.6182 16.5294 17.8083C16.988 17.9984 17.4927 18.0482 17.9796 17.9513C18.4666 17.8545 18.9138 17.6153 19.2649 17.2642C19.6159 16.913 19.855 16.4656 19.9518 15.9785C20.0486 15.4914 19.9989 14.9866 19.8088 14.5278C19.6188 14.069 19.297 13.6769 18.8841 13.4011C18.4713 13.1253 17.9859 12.9782 17.4895 12.9783C16.8241 12.9785 16.186 13.243 15.7155 13.7136C15.2449 14.1843 14.9805 14.8226 14.9803 15.4882Z"
      fill="#DFDFDF"/>
  <path
      d="M8.74465 0.336837C8.45915 0.501693 8.20893 0.72121 8.00827 0.982843C7.80762 1.24448 7.66047 1.5431 7.57524 1.86164C7.49001 2.18018 7.46837 2.5124 7.51155 2.83932C7.55472 3.16623 7.66188 3.48143 7.82688 3.7669L11.5716 10.2557C11.9045 10.8323 12.4528 11.253 13.0958 11.4253C13.7388 11.5975 14.4239 11.5072 15.0003 11.1741C15.5767 10.8411 15.9973 10.2927 16.1694 9.64949C16.3416 9.0063 16.2513 8.32102 15.9184 7.74443L12.1729 1.25559C12.0083 0.969969 11.7889 0.719614 11.5275 0.518837C11.266 0.318061 10.9675 0.1708 10.6492 0.0854744C10.3308 0.000148274 9.99868 -0.0215704 9.67189 0.0215601C9.34511 0.0646905 9.03002 0.171824 8.74465 0.336837Z"
      fill="#DFDFDF"/>
  <path
      d="M4.08132 7.74372L0.335869 14.2333C0.171117 14.519 0.0642404 14.8344 0.0213407 15.1614C-0.021559 15.4885 0.00035841 15.8208 0.0858417 16.1394C0.171325 16.4579 0.3187 16.7565 0.519552 17.0182C0.720404 17.2798 0.9708 17.4992 1.25644 17.664C1.54209 17.8288 1.85738 17.9357 2.18433 17.9787C2.51128 18.0216 2.84347 17.9996 3.16195 17.9141C3.48043 17.8286 3.77895 17.6812 4.04047 17.4803C4.30199 17.2794 4.52139 17.0289 4.68615 16.7432L5.70565 14.9772C5.8098 14.7969 5.9698 14.6554 6.16147 14.5742C6.35314 14.4929 6.56606 14.4762 6.76803 14.5267C6.96999 14.5772 7.15003 14.6922 7.28091 14.8541C7.4118 15.016 7.48641 15.2162 7.49348 15.4243C7.49348 15.4461 7.49348 15.4672 7.49348 15.4882C7.49351 16.0408 7.67576 16.5779 8.01199 17.0162C8.34821 17.4546 8.81962 17.7698 9.35314 17.913C9.88665 18.0561 10.4525 18.0192 10.9629 17.8079C11.4733 17.5967 11.8998 17.2229 12.1762 16.7445C12.4527 16.2662 12.5636 15.7099 12.4919 15.1621C12.4202 14.6142 12.1698 14.1053 11.7795 13.7143C11.3892 13.3232 10.8809 13.0719 10.3333 12.9993C9.78577 12.9266 9.22953 13.0367 8.75085 13.3124H8.74523C8.73618 13.3171 8.7275 13.3225 8.71927 13.3285C8.53624 13.4326 8.32406 13.4736 8.11545 13.4451C7.90685 13.4166 7.7134 13.3203 7.56497 13.1709C7.41653 13.0215 7.32135 12.8275 7.2941 12.6186C7.26685 12.4098 7.30905 12.1978 7.41419 12.0153L8.43159 10.2515C8.60247 9.96582 8.71482 9.64897 8.76213 9.31941C8.80943 8.98986 8.79074 8.65419 8.70713 8.33193C8.62353 8.00968 8.47668 7.70727 8.27514 7.44232C8.0736 7.17736 7.82139 6.95515 7.53319 6.78862C7.24499 6.62209 6.92656 6.51456 6.59642 6.47229C6.26629 6.43002 5.93104 6.45386 5.6102 6.54242C5.28936 6.63097 4.98934 6.78248 4.72758 6.98811C4.46583 7.19375 4.24758 7.44941 4.08553 7.74021"
      fill="#DFDFDF"/>
</svg>
