<?xml version="1.0" encoding="utf-8"?>
<!-- Generator: Adobe Illustrator 24.1.1, SVG Export Plug-In . SVG Version: 6.00 Build 0)  -->
<svg version="1.1" id="Capa_1" xmlns="http://www.w3.org/2000/svg" x="0px" y="0px"
     viewBox="0 0 48 48" style="enable-background:new 0 0 48 48;" xml:space="preserve">
<g>
	<path d="M27.5,24L43.3,8.3c1-1,1-2.6,0-3.5c-1-1-2.6-1-3.5,0L24,20.4L8.3,4.7c-1-1-2.6-1-3.5,0c-1,1-1,2.6,0,3.5
		L20.4,24L4.7,39.7c-1,1-1,2.6,0,3.5C5.2,43.8,5.8,44,6.5,44s1.3-0.3,1.8-0.8L24,27.5l15.8,15.8c0.5,0.5,1.2,0.8,1.8,0.8
		s1.3-0.3,1.8-0.8c1-1,1-2.6,0-3.5L27.5,24z"/>
</g>
</svg>
