<svg width="12" height="12" viewBox="0 0 12 12" fill="none" xmlns="http://www.w3.org/2000/svg">
  <path d="M3.33218 5.1263C3.12579 4.94284 2.80975 4.96143 2.6263 5.16782C2.44284 5.37421 2.46143 5.69025 2.66782 5.8737L3.33218 5.1263ZM5.25 7.5L4.91782 7.8737C5.0999 8.03555 5.37212 8.04262 5.56235 7.89043L5.25 7.5ZM9.31235 4.89043C9.52798 4.71793 9.56294 4.40328 9.39043 4.18765C9.21793 3.97202 8.90328 3.93706 8.68765 4.10957L9.31235 4.89043ZM2.66782 5.8737L4.91782 7.8737L5.58218 7.1263L3.33218 5.1263L2.66782 5.8737ZM5.56235 7.89043L9.31235 4.89043L8.68765 4.10957L4.93765 7.10957L5.56235 7.89043Z" fill="#796EFF"/>
</svg>
