<svg width="10" height="6" viewBox="0 0 10 6" fill="none" xmlns="http://www.w3.org/2000/svg">
  <path
      d="M3.40681 5.03283C3.30771 5.13194 3.25203 5.26635 3.25203 5.4065C3.25203 5.54666 3.30771 5.68107 3.40681 5.78018C3.50592 5.87928 3.64033 5.93496 3.78049 5.93496H6.21951C6.35967 5.93496 6.49408 5.87928 6.59319 5.78018C6.69229 5.68107 6.74797 5.54666 6.74797 5.4065C6.74797 5.26635 6.69229 5.13194 6.59319 5.03283C6.49408 4.93372 6.35967 4.87805 6.21951 4.87805H3.78049C3.64033 4.87805 3.50592 4.93372 3.40681 5.03283ZM1.7808 2.59381C1.68169 2.69291 1.62602 2.82733 1.62602 2.96748C1.62602 3.10763 1.68169 3.24205 1.7808 3.34115C1.8799 3.44026 2.01432 3.49594 2.15447 3.49594H7.84553C7.98569 3.49594 8.12008 3.44026 8.21919 3.34115C8.31829 3.24205 8.37398 3.10763 8.37398 2.96748C8.37398 2.82733 8.31829 2.69291 8.21919 2.59381C8.12008 2.4947 7.98569 2.43902 7.84553 2.43902H2.15447C2.01432 2.43902 1.8799 2.4947 1.7808 2.59381ZM0.15478 0.154781C0.0556764 0.253885 0 0.3883 0 0.528455C0 0.66861 0.0556764 0.803024 0.15478 0.90213C0.253886 1.00124 0.388301 1.05691 0.528455 1.05691H9.47155C9.61171 1.05691 9.7461 1.00124 9.8452 0.90213C9.94431 0.803024 10 0.66861 10 0.528455C10 0.388301 9.94431 0.253886 9.8452 0.154781C9.7461 0.0556764 9.61171 0 9.47155 0H0.528455C0.388301 0 0.253886 0.0556764 0.15478 0.154781Z"
      fill="#515151"/>
</svg>
